<?xml version="1.0" encoding="UTF-8" standalone="no"?>
<svg
   xmlns:dc="http://purl.org/dc/elements/1.1/"
   xmlns:cc="http://creativecommons.org/ns#"
   xmlns:rdf="http://www.w3.org/1999/02/22-rdf-syntax-ns#"
   xmlns:svg="http://www.w3.org/2000/svg"
   xmlns="http://www.w3.org/2000/svg"
   xmlns:sodipodi="http://sodipodi.sourceforge.net/DTD/sodipodi-0.dtd"
   xmlns:inkscape="http://www.inkscape.org/namespaces/inkscape"
   width="160"
   height="42"
   viewBox="0 0 160 42"
   version="1.1"
   id="svg17"
   sodipodi:docname="logo-complete.svg"
   inkscape:version="0.92.4 (5da689c313, 2019-01-14)"
   style="fill:none">
  <metadata
     id="metadata21">
    <rdf:RDF>
      <cc:Work
         rdf:about="">
        <dc:format>image/svg+xml</dc:format>
        <dc:type
           rdf:resource="http://purl.org/dc/dcmitype/StillImage" />
        <dc:title></dc:title>
      </cc:Work>
    </rdf:RDF>
  </metadata>
  <sodipodi:namedview
     pagecolor="#ffffff"
     bordercolor="#666666"
     borderopacity="1"
     objecttolerance="10"
     gridtolerance="10"
     guidetolerance="10"
     inkscape:pageopacity="0"
     inkscape:pageshadow="2"
     inkscape:window-width="1680"
     inkscape:window-height="987"
     id="namedview19"
     showgrid="false"
     inkscape:zoom="3.5773195"
     inkscape:cx="34.98629"
     inkscape:cy="56.798309"
     inkscape:window-x="-8"
     inkscape:window-y="-8"
     inkscape:window-maximized="1"
     inkscape:current-layer="svg17" />
  <path
     d="m 50.86435,29.685948 h -2.072522 l -8.33564,-12.64011 v 12.64011 H 38.383665 V 13.789017 h 2.072523 l 8.33564,12.617335 V 13.789017 h 2.072522 z m 14.920456,-6.718617 c 0,0.394739 -0.02277,0.812335 -0.06833,1.252624 h -9.975433 c 0.07589,1.229848 0.493485,2.193961 1.252624,2.892421 0.774349,0.68325 1.708122,1.024874 2.801321,1.024874 0.895789,0 1.639798,-0.204975 2.231948,-0.614924 0.607359,-0.42516 1.032438,-0.986889 1.275398,-1.685348 h 2.231948 c -0.334061,1.199509 -1.002099,2.178832 -2.004198,2.937971 -1.002099,0.74401 -2.247158,1.115974 -3.735096,1.115974 -1.184298,0 -2.247158,-0.265735 -3.188496,-0.797124 -0.926209,-0.531389 -1.655008,-1.282963 -2.186398,-2.254722 -0.531389,-0.986889 -0.797123,-2.125638 -0.797123,-3.416246 0,-1.29061 0.258089,-2.421713 0.774349,-3.393472 0.516259,-0.971759 1.237413,-1.715688 2.163622,-2.231948 0.941338,-0.531388 2.019408,-0.797123 3.234046,-0.797123 1.184299,0 2.231948,0.258089 3.142947,0.774349 0.910999,0.51626 1.609458,1.229849 2.095297,2.140847 0.50105,0.895789 0.751575,1.913098 0.751575,3.051847 z m -2.140849,-0.432724 c 0,-0.78956 -0.174634,-1.465164 -0.523824,-2.026973 -0.349189,-0.576939 -0.827463,-1.009664 -1.434823,-1.298173 -0.592149,-0.30364 -1.252624,-0.455501 -1.981423,-0.455501 -1.047649,0 -1.943437,0.334061 -2.687447,1.002099 -0.728799,0.66804 -1.146313,1.594249 -1.252623,2.778548 z m 6.949052,-3.302372 c 0.3644,-0.713588 0.880578,-1.267833 1.548861,-1.662573 0.683249,-0.394739 1.510468,-0.592149 2.482472,-0.592149 v 2.140847 h -0.5466 c -2.323047,0 -3.484733,1.260189 -3.484733,3.780646 v 6.786942 H 68.520486 V 17.205263 h 2.072523 z m 5.649169,4.16782 c 0,-1.275398 0.257846,-2.391371 0.77435,-3.34792 0.516504,-0.97176 1.222527,-1.723334 2.118073,-2.254724 0.910998,-0.531388 1.928552,-0.797123 3.051846,-0.797123 0.972003,0 1.874868,0.227749 2.710221,0.683249 0.835354,0.440289 1.473053,1.024874 1.913098,1.753673 v -6.604742 h 2.095302 v 16.85348 h -2.095302 v -2.345822 c -0.409949,0.744009 -1.017553,1.358933 -1.821997,1.844772 -0.804445,0.47071 -1.746353,0.706025 -2.824097,0.706025 -1.108654,0 -2.118073,-0.2733 -3.029071,-0.819899 -0.895546,-0.546599 -1.601569,-1.313384 -2.118073,-2.300273 -0.516504,-0.986888 -0.77435,-2.110508 -0.77435,-3.370696 z m 10.567588,0.02277 c 0,-0.941339 -0.18952,-1.761238 -0.569374,-2.459698 -0.379854,-0.698459 -0.895544,-1.229848 -1.548698,-1.594248 -0.6377,-0.37961 -1.343723,-0.569374 -2.118073,-0.569374 -0.774349,0 -1.480373,0.1822 -2.118072,0.546599 -0.637699,0.3644 -1.14607,0.895788 -1.525924,1.594248 -0.379853,0.69846 -0.569374,1.518359 -0.569374,2.459697 0,0.956549 0.189521,1.791659 0.569374,2.505248 0.379854,0.698459 0.888225,1.237412 1.525924,1.617023 0.637699,0.364399 1.343723,0.5466 2.118072,0.5466 0.77435,0 1.480373,-0.182201 2.118073,-0.5466 0.653154,-0.379611 1.168844,-0.918564 1.548698,-1.617023 0.379854,-0.713589 0.569374,-1.541134 0.569374,-2.482472 z M 102.178,13.811789 v 1.685348 H 97.850752 V 29.685948 H 95.778229 V 15.497139 H 91.42821 v -1.685348 z m 1.77645,9.588264 c 0,-1.275398 0.25865,-2.391371 0.77434,-3.34792 0.51651,-0.97176 1.22253,-1.723334 2.11808,-2.254723 0.91099,-0.531389 1.92122,-0.797124 3.02907,-0.797124 1.0932,0 2.04243,0.235314 2.84687,0.706024 0.80526,0.47071 1.40473,1.062859 1.79922,1.776448 v -2.277497 h 2.0953 v 12.480685 h -2.0953 v -2.323047 c -0.40995,0.728799 -1.02487,1.336158 -1.84477,1.821997 -0.80444,0.47071 -1.74554,0.706025 -2.8241,0.706025 -1.10784,0 -2.10994,-0.2733 -3.00629,-0.819899 -0.89555,-0.546599 -1.60157,-1.313384 -2.11808,-2.300273 -0.51569,-0.986888 -0.77434,-2.110507 -0.77434,-3.370696 z m 10.56758,0.02277 c 0,-0.941339 -0.18951,-1.761238 -0.56938,-2.459697 -0.37903,-0.69846 -0.89553,-1.229849 -1.54869,-1.594249 -0.6377,-0.37961 -1.34372,-0.569374 -2.11807,-0.569374 -0.77435,0 -1.48037,0.1822 -2.11807,0.546599 -0.6377,0.3644 -1.14607,0.895788 -1.52593,1.594248 -0.37904,0.69846 -0.56937,1.518359 -0.56937,2.459697 0,0.956549 0.19033,1.791659 0.56937,2.505248 0.37986,0.698459 0.88823,1.237413 1.52593,1.617023 0.6377,0.364399 1.34372,0.5466 2.11807,0.5466 0.77435,0 1.48037,-0.182201 2.11807,-0.5466 0.65316,-0.37961 1.16966,-0.918564 1.54869,-1.617023 0.37987,-0.713589 0.56938,-1.541134 0.56938,-2.482472 z m 7.67029,-10.590363 v 16.85348 h -2.07253 V 12.83246 Z m 10.5017,16.85348 -4.89662,-5.511543 v 5.511543 h -2.07252 V 12.83246 h 2.07252 v 9.907118 l 4.80553,-5.534319 h 2.89241 l -5.87594,6.217568 5.89872,6.263117 z m 9.17019,0.204975 c -0.95655,0 -1.81468,-0.159425 -2.57358,-0.478275 -0.7589,-0.334059 -1.35918,-0.789559 -1.79922,-1.366498 -0.44005,-0.592149 -0.68325,-1.267834 -0.7288,-2.026972 h 2.14084 c 0.061,0.622488 0.34895,1.131184 0.86546,1.525923 0.53114,0.394739 1.22252,0.592149 2.07252,0.592149 0.7898,0 1.41204,-0.174635 1.86754,-0.523825 0.45551,-0.349188 0.68325,-0.789558 0.68325,-1.320948 0,-0.546599 -0.2432,-0.948984 -0.72879,-1.207074 -0.4856,-0.273299 -1.23718,-0.539034 -2.25473,-0.797124 -0.92645,-0.24296 -1.68534,-0.485839 -2.27749,-0.728799 -0.5767,-0.258089 -1.07775,-0.630135 -1.50315,-1.115974 -0.40995,-0.501049 -0.61492,-1.153958 -0.61492,-1.958647 0,-0.637699 0.18951,-1.222284 0.56936,-1.753673 0.37987,-0.531389 0.91833,-0.948985 1.61703,-1.252623 0.69871,-0.31885 1.49583,-0.478275 2.39137,-0.478275 1.38196,0 2.49793,0.349189 3.34793,1.047649 0.84999,0.698459 1.30549,1.655008 1.36649,2.869646 h -2.07252 c -0.0455,-0.652909 -0.31153,-1.176734 -0.79713,-1.571473 -0.47094,-0.394739 -1.10864,-0.59215 -1.91309,-0.59215 -0.74426,0 -1.33641,0.159425 -1.77645,0.478275 -0.44004,0.31885 -0.66047,0.736364 -0.66047,1.252624 0,0.40995 0.12932,0.751574 0.38717,1.024874 0.2733,0.258089 0.60761,0.47071 1.0021,0.637699 0.40995,0.15186 0.972,0.326414 1.68535,0.523824 0.89554,0.24296 1.62434,0.485839 2.18639,0.728799 0.56206,0.22775 1.04033,0.57694 1.43483,1.047649 0.40994,0.47071 0.62225,1.085635 0.6377,1.844773 0,0.683249 -0.18952,1.298174 -0.56938,1.844773 -0.37985,0.546599 -0.91831,0.979324 -1.61702,1.298174 -0.68325,0.303639 -1.47306,0.455499 -2.36859,0.455499 z"
     id="path2"
     inkscape:connector-curvature="0"
     style="fill:#333333;fill-opacity:1;stroke-width:0.81339192" />
  <defs
     id="defs15">
    <clipPath
       id="clip0">
      <rect
         y="1"
         width="46"
         height="40"
         id="rect12"
         x="0"
         style="fill:#ffffff" />
    </clipPath>
  </defs>
  <g
     id="g823"
     style="fill:none;fill-opacity:1;stroke:#17b978;stroke-width:0.83332893;stroke-miterlimit:4;stroke-dasharray:none;stroke-opacity:1"
     transform="matrix(2.3860111,0,0,2.4140964,0.53061206,-681.25323)">
    <g
       transform="matrix(0.10068426,0,0,0.10170897,-4.5262292,276.98552)"
       style="fill:none;fill-opacity:1;stroke:#17b978;stroke-width:8.23485663;stroke-miterlimit:4;stroke-dasharray:none;stroke-opacity:1"
       id="g871">
      <path
         inkscape:connector-curvature="0"
         style="fill:none;fill-opacity:1;stroke:#17b978;stroke-width:31.12386795;stroke-linecap:round;stroke-miterlimit:4;stroke-dasharray:none;stroke-opacity:1"
         d="m 428.40234,314.51758 c -81.72526,0 -152.33495,45.93222 -186.29492,112.74609 a 107.85714,107.85714 0 0 1 48.85156,-11.82422 107.85714,107.85714 0 0 1 96.92383,60.72266 89.602968,77.448986 0 0 1 42.39258,-9.29492 89.602968,77.448986 0 0 1 38.85938,7.73242 107.85714,107.85714 0 0 1 96.10937,-59.16016 107.85714,107.85714 0 0 1 49.65234,12.15235 C 580.86883,360.62833 510.13809,314.51758 428.40234,314.51758 Z m 4.47071,178.53906 a 89.602968,77.448986 0 0 0 -36.73438,6.97266 107.85714,107.85714 0 0 1 2.67774,23.26758 107.85714,107.85714 0 0 1 -107.85743,107.85546 107.85714,107.85714 0 0 1 -40.01367,-7.74609 199.81,199.81 0 0 0 2.62696,4.45313 44.859999,44.859999 0 0 1 2.53906,3.79882 c 2.51,4.39 5.14117,10.47936 3.95117,14.85938 l -19.62109,70.9707 a 15.85,15.85 0 0 0 -0.59961,3.29102 9.6,9.6 0 0 0 9.57031,9.73828 16,16 0 0 0 4.66992,-1.21875 l 67.83008,-24.48047 a 30.71,30.71 0 0 1 12.08984,-2.42969 31.09,31.09 0 0 1 11.11914,2.07031 c 3.47,1.34004 16.92063,6.33938 30.39063,10.10938 13.46999,3.77 38.17072,8.36914 56.4707,8.36914 76.34926,0 141.41646,-40.71721 176.58399,-100.9375 a 107.85714,107.85714 0 0 1 -43.32227,9.15234 107.85714,107.85714 0 0 1 -107.85742,-107.85546 107.85714,107.85714 0 0 1 3.38672,-26.26758 89.602968,77.448986 0 0 0 -27.90039,-3.97266 z"
         transform="scale(0.26458333)"
         id="path835" />
      <path
         style="fill:none;fill-opacity:1;stroke:#17b978;stroke-width:8.23485663;stroke-miterlimit:4;stroke-dasharray:none;stroke-opacity:1;paint-order:markers fill stroke"
         d="m 76.983153,109.91848 a 28.537201,28.537201 0 0 0 -28.537275,28.53727 28.537201,28.537201 0 0 0 28.537275,28.53676 28.537201,28.537201 0 0 0 28.537277,-28.53676 28.537201,28.537201 0 0 0 -0.70849,-6.15621 23.707452,20.491711 0 0 1 9.71931,-1.84485 23.707452,20.491711 0 0 1 7.38198,1.0511 28.537201,28.537201 0 0 0 -0.89607,6.94996 28.537201,28.537201 0 0 0 28.53727,28.53676 28.537201,28.537201 0 0 0 28.53728,-28.53676 28.537201,28.537201 0 0 0 -28.53728,-28.53727 28.537201,28.537201 0 0 0 -25.42894,15.65279 23.707452,20.491711 0 0 0 -10.28154,-2.04587 23.707452,20.491711 0 0 0 -11.21637,2.45928 28.537201,28.537201 0 0 0 -25.644427,-16.0662 z"
         id="path846"
         inkscape:connector-curvature="0" />
    </g>
    <rect
       y="289.82755"
       x="6.1131144"
       height="0.25953391"
       width="1.5516046"
       id="rect817"
       style="fill:none;fill-opacity:1;stroke:#17b978;stroke-width:0.83332893;stroke-miterlimit:4;stroke-dasharray:none;stroke-opacity:1;paint-order:markers fill stroke" />
  </g>
</svg>
