<?xml version="1.0" encoding="UTF-8" standalone="no"?>
<svg
   xmlns:dc="http://purl.org/dc/elements/1.1/"
   xmlns:cc="http://creativecommons.org/ns#"
   xmlns:rdf="http://www.w3.org/1999/02/22-rdf-syntax-ns#"
   xmlns:svg="http://www.w3.org/2000/svg"
   xmlns="http://www.w3.org/2000/svg"
   xmlns:sodipodi="http://sodipodi.sourceforge.net/DTD/sodipodi-0.dtd"
   xmlns:inkscape="http://www.inkscape.org/namespaces/inkscape"
   width="485"
   height="224"
   viewBox="0 0 485 224"
   fill="none"
   version="1.1"
   id="svg105"
   sodipodi:docname="onlinetest.svg"
   inkscape:version="0.92.4 (5da689c313, 2019-01-14)">
  <metadata
     id="metadata109">
    <rdf:RDF>
      <cc:Work
         rdf:about="">
        <dc:format>image/svg+xml</dc:format>
        <dc:type
           rdf:resource="http://purl.org/dc/dcmitype/StillImage" />
      </cc:Work>
    </rdf:RDF>
  </metadata>
  <sodipodi:namedview
     pagecolor="#ffffff"
     bordercolor="#666666"
     borderopacity="1"
     objecttolerance="10"
     gridtolerance="10"
     guidetolerance="10"
     inkscape:pageopacity="0"
     inkscape:pageshadow="2"
     inkscape:window-width="1680"
     inkscape:window-height="987"
     id="namedview107"
     showgrid="false"
     inkscape:zoom="1.4309278"
     inkscape:cx="229.68314"
     inkscape:cy="139.45358"
     inkscape:window-x="-8"
     inkscape:window-y="-8"
     inkscape:window-maximized="1"
     inkscape:current-layer="svg105" />
  <path
     style="fill:#3f3d56"
     inkscape:connector-curvature="0"
     id="path2"
     d="m 43.5301,213.25 -0.6529,-0.245 c -0.1434,-0.054 -14.4214,-5.516 -21.1098,-17.902 -6.6887,-12.386 -3.4136,-27.3 -3.3797,-27.449 l 0.1542,-0.679 0.6525,0.244 c 0.1434,0.054 14.4211,5.517 21.1098,17.903 6.6887,12.386 3.4136,27.3 3.3797,27.449 z M 22.8384,194.527 c 5.6548,10.472 16.9377,15.84 19.7965,17.065 0.5435,-3.059 2.248,-15.431 -3.4017,-25.894 -5.6492,-10.461 -16.9365,-15.837 -19.7964,-17.066 -0.5439,3.062 -2.2478,15.433 3.4016,25.895 z" />
  <path
     style="fill:#d0cde1"
     inkscape:connector-curvature="0"
     id="path4"
     d="m 26.8789,190.758 c 12.0199,7.221 16.6492,21.565 16.6492,21.565 0,0 -14.8589,2.635 -26.8789,-4.586 C 4.62925,200.516 -1.52588e-5,186.172 -1.52588e-5,186.172 c 0,0 14.8589152588,-2.635 26.8789152588,4.586 z" />
  <path
     style="fill:#3f3d56"
     inkscape:connector-curvature="0"
     id="path6"
     d="M 411.558,2.75862 H 277.522 V -3.8147e-6 H 216.745 V 2.75862 H 82.1559 c -1.1907,0 -2.3696,0.23418 -3.4696,0.68916 -1.1,0.45498 -2.0995,1.12185 -2.9414,1.96255 C 74.903,6.25102 74.2351,7.24906 73.7795,8.34748 73.3239,9.4459 73.0893,10.6232 73.0893,11.8121 V 195.084 c 0,2.402 0.9553,4.704 2.6556,6.402 1.7003,1.698 4.0064,2.652 6.411,2.652 H 411.558 c 1.191,0 2.37,-0.234 3.47,-0.689 1.1,-0.455 2.099,-1.122 2.941,-1.963 0.842,-0.84 1.51,-1.839 1.965,-2.937 0.456,-1.098 0.691,-2.276 0.691,-3.465 V 11.8121 c 0,-1.1889 -0.235,-2.3662 -0.691,-3.46462 -0.455,-1.09843 -1.123,-2.09647 -1.965,-2.93716 -0.842,-0.8407 -1.841,-1.50757 -2.941,-1.96255 -1.1,-0.45498 -2.279,-0.68916 -3.47,-0.68915 z" />
  <path
     style="fill:#17b978;fill-opacity:1"
     inkscape:connector-curvature="0"
     id="path8"
     d="M 408.469,18.7586 H 85.2448 V 200.828 H 408.469 Z" />
  <path
     style="fill:#17b978;fill-opacity:1"
     inkscape:connector-curvature="0"
     id="path10"
     d="m 246.581,13.7931 c 1.831,0 3.315,-1.4821 3.315,-3.3103 0,-1.82829 -1.484,-3.31038 -3.315,-3.31038 -1.831,0 -3.315,1.48209 -3.315,3.31038 0,1.8282 1.484,3.3103 3.315,3.3103 z" />
  <path
     style="fill:#3f3d56"
     inkscape:connector-curvature="0"
     id="path12"
     d="M 389.914,41.9308 H 374.592 V 26.6312 h 15.322 z m -14.656,-0.6652 h 13.99 V 27.2964 h -13.99 z" />
  <path
     style="fill:#3f3d56"
     inkscape:connector-curvature="0"
     id="path14"
     d="m 429.7,197.517 h -31.545 v -2.269 c 0,-0.059 -0.011,-0.118 -0.034,-0.172 -0.022,-0.055 -0.056,-0.105 -0.097,-0.146 -0.042,-0.042 -0.092,-0.075 -0.147,-0.098 -0.054,-0.023 -0.113,-0.034 -0.172,-0.034 H 386.89 c -0.06,0 -0.118,0.011 -0.173,0.034 -0.055,0.023 -0.104,0.056 -0.146,0.098 -0.042,0.041 -0.075,0.091 -0.098,0.146 -0.022,0.054 -0.034,0.113 -0.034,0.172 v 2.269 h -6.76 v -2.269 c 0,-0.059 -0.011,-0.118 -0.034,-0.172 -0.023,-0.055 -0.056,-0.105 -0.098,-0.146 -0.041,-0.042 -0.091,-0.075 -0.146,-0.098 -0.054,-0.023 -0.113,-0.034 -0.172,-0.034 h -10.816 c -0.059,0 -0.117,0.011 -0.172,0.034 -0.055,0.023 -0.104,0.056 -0.146,0.098 -0.042,0.041 -0.075,0.091 -0.098,0.146 -0.023,0.054 -0.034,0.113 -0.034,0.172 v 2.269 h -6.76 v -2.269 c 0,-0.059 -0.011,-0.118 -0.034,-0.172 -0.023,-0.055 -0.056,-0.105 -0.098,-0.146 -0.042,-0.042 -0.091,-0.075 -0.146,-0.098 -0.055,-0.023 -0.113,-0.034 -0.172,-0.034 h -10.816 c -0.059,0 -0.117,0.011 -0.172,0.034 -0.055,0.023 -0.105,0.056 -0.146,0.098 -0.042,0.041 -0.075,0.091 -0.098,0.146 -0.023,0.054 -0.034,0.113 -0.034,0.172 v 2.269 h -6.76 v -2.269 c 0,-0.059 -0.012,-0.118 -0.034,-0.172 -0.023,-0.055 -0.056,-0.105 -0.098,-0.146 -0.042,-0.042 -0.091,-0.075 -0.146,-0.098 -0.055,-0.023 -0.113,-0.034 -0.172,-0.034 h -10.816 c -0.059,0 -0.118,0.011 -0.172,0.034 -0.055,0.023 -0.105,0.056 -0.146,0.098 -0.042,0.041 -0.075,0.091 -0.098,0.146 -0.023,0.054 -0.034,0.113 -0.034,0.172 v 2.269 h -6.76 v -2.269 c 0,-0.059 -0.012,-0.118 -0.034,-0.172 -0.023,-0.055 -0.056,-0.105 -0.098,-0.146 -0.042,-0.042 -0.092,-0.075 -0.146,-0.098 -0.055,-0.023 -0.113,-0.034 -0.173,-0.034 h -10.815 c -0.059,0 -0.118,0.011 -0.172,0.034 -0.055,0.023 -0.105,0.056 -0.147,0.098 -0.041,0.041 -0.075,0.091 -0.097,0.146 -0.023,0.054 -0.035,0.113 -0.035,0.172 v 2.269 h -6.759 v -2.269 c 0,-0.059 -0.012,-0.118 -0.034,-0.172 -0.023,-0.055 -0.056,-0.105 -0.098,-0.146 -0.042,-0.042 -0.092,-0.075 -0.146,-0.098 -0.055,-0.023 -0.114,-0.034 -0.173,-0.034 h -10.815 c -0.059,0 -0.118,0.011 -0.173,0.034 -0.054,0.023 -0.104,0.056 -0.146,0.098 -0.042,0.041 -0.075,0.091 -0.097,0.146 -0.023,0.054 -0.035,0.113 -0.035,0.172 v 2.269 h -6.759 v -2.269 c 0,-0.059 -0.012,-0.118 -0.035,-0.172 -0.022,-0.055 -0.055,-0.105 -0.097,-0.146 -0.042,-0.042 -0.092,-0.075 -0.146,-0.098 -0.055,-0.023 -0.114,-0.034 -0.173,-0.034 h -84.72 c -0.059,0 -0.117,0.011 -0.172,0.034 -0.055,0.023 -0.104,0.056 -0.146,0.098 -0.042,0.041 -0.075,0.091 -0.098,0.146 -0.023,0.054 -0.034,0.113 -0.034,0.172 v 2.269 h -6.76 v -2.269 c 0,-0.059 -0.012,-0.118 -0.034,-0.172 -0.023,-0.055 -0.056,-0.105 -0.098,-0.146 -0.042,-0.042 -0.091,-0.075 -0.146,-0.098 -0.055,-0.023 -0.113,-0.034 -0.173,-0.034 h -10.815 c -0.059,0 -0.118,0.011 -0.172,0.034 -0.055,0.023 -0.105,0.056 -0.146,0.098 -0.042,0.041 -0.075,0.091 -0.098,0.146 -0.023,0.054 -0.034,0.113 -0.034,0.172 v 2.269 h -6.76 v -2.269 c 0,-0.059 -0.012,-0.118 -0.034,-0.172 -0.023,-0.055 -0.056,-0.105 -0.098,-0.146 -0.042,-0.042 -0.092,-0.075 -0.146,-0.098 -0.055,-0.023 -0.113,-0.034 -0.173,-0.034 h -10.815 c -0.059,0 -0.118,0.011 -0.172,0.034 -0.055,0.023 -0.105,0.056 -0.147,0.098 -0.041,0.041 -0.075,0.091 -0.097,0.146 -0.023,0.054 -0.035,0.113 -0.035,0.172 v 2.269 h -6.759 v -2.269 c 0,-0.059 -0.012,-0.118 -0.034,-0.172 -0.023,-0.055 -0.056,-0.105 -0.098,-0.146 -0.042,-0.042 -0.092,-0.075 -0.146,-0.098 -0.055,-0.023 -0.114,-0.034 -0.173,-0.034 H 146.7 c -0.059,0 -0.118,0.011 -0.173,0.034 -0.054,0.023 -0.104,0.056 -0.146,0.098 -0.042,0.041 -0.075,0.091 -0.097,0.146 -0.023,0.054 -0.035,0.113 -0.035,0.172 v 2.269 h -6.759 v -2.269 c 0,-0.059 -0.012,-0.118 -0.035,-0.172 -0.022,-0.055 -0.055,-0.105 -0.097,-0.146 -0.042,-0.042 -0.092,-0.075 -0.146,-0.098 -0.055,-0.023 -0.114,-0.034 -0.173,-0.034 h -10.815 c -0.059,0 -0.118,0.011 -0.173,0.034 -0.054,0.023 -0.104,0.056 -0.146,0.098 -0.042,0.041 -0.075,0.091 -0.098,0.146 -0.022,0.054 -0.034,0.113 -0.034,0.172 v 2.269 h -6.759 v -2.269 c 0,-0.059 -0.012,-0.118 -0.035,-0.172 -0.022,-0.055 -0.056,-0.105 -0.097,-0.146 -0.042,-0.042 -0.092,-0.075 -0.147,-0.098 -0.054,-0.023 -0.113,-0.034 -0.172,-0.034 h -10.815 c -0.059,0 -0.118,0.011 -0.173,0.034 -0.054,0.023 -0.104,0.056 -0.146,0.098 -0.042,0.041 -0.075,0.091 -0.098,0.146 -0.022,0.054 -0.034,0.113 -0.034,0.172 v 2.269 h -6.759 v -2.269 c 0,-0.059 -0.012,-0.118 -0.035,-0.172 -0.022,-0.055 -0.056,-0.105 -0.097,-0.146 -0.042,-0.042 -0.092,-0.075 -0.147,-0.098 -0.054,-0.023 -0.113,-0.034 -0.172,-0.034 H 91.2716 c -0.0592,0 -0.1178,0.011 -0.1725,0.034 -0.0547,0.023 -0.1043,0.056 -0.1462,0.098 -0.0418,0.041 -0.075,0.091 -0.0977,0.146 -0.0226,0.054 -0.0343,0.113 -0.0343,0.172 v 2.269 H 70.0916 c -2.8684,0 -5.6193,1.138 -7.6475,3.163 -2.0283,2.026 -3.1678,4.773 -3.1678,7.637 v 4.883 c 0,2.865 1.1395,5.612 3.1678,7.637 2.0282,2.025 4.7791,3.163 7.6475,3.163 H 429.7 c 2.868,0 5.619,-1.138 7.648,-3.163 2.028,-2.025 3.167,-4.772 3.167,-7.637 v -4.883 c 0,-2.864 -1.139,-5.611 -3.167,-7.637 -2.029,-2.025 -4.78,-3.163 -7.648,-3.163 z" />
  <path
     style="fill:#3f3d56"
     inkscape:connector-curvature="0"
     id="path16"
     d="M 485,212.921 H 14.7917 v 1.432 H 485 Z" />
  <path
     style="fill:#3f3d56"
     inkscape:connector-curvature="0"
     id="path18"
     d="M 388.489,120.211 H 284.421 V 61.0496 H 388.489 Z M 285.451,119.182 H 387.458 V 62.0785 H 285.451 Z" />
  <path
     style="fill:#3f3d56"
     inkscape:connector-curvature="0"
     id="path20"
     d="M 197.869,132.043 H 105.135 V 74.4252 h 92.734 z m -91.703,-1.029 h 90.673 V 75.4541 h -90.673 z" />
  <path
     style="fill:#d0cde1"
     inkscape:connector-curvature="0"
     id="path22"
     d="m 148.46,109.922 -0.089,-1.151 c -0.266,-2.388 0.532,-4.999 2.747,-7.653 1.994,-2.3451 3.101,-4.0703 3.101,-6.0612 0,-2.2563 -1.418,-3.7604 -4.209,-3.8046 -1.596,-0.0065 -3.157,0.4718 -4.475,1.3715 l -1.063,-2.7873 c 1.462,-1.062 3.988,-1.7699 6.336,-1.7699 5.095,0 7.399,3.1415 7.399,6.5034 0,3.0088 -1.684,5.1766 -3.811,7.6981 -1.949,2.3 -2.658,4.247 -2.525,6.503 l 0.044,1.151 z m -0.975,6.194 c -0.024,-0.361 0.027,-0.723 0.151,-1.063 0.123,-0.34 0.316,-0.651 0.566,-0.913 0.249,-0.262 0.551,-0.469 0.885,-0.609 0.334,-0.14 0.694,-0.209 1.056,-0.202 1.551,0 2.614,1.15 2.614,2.787 0.015,0.355 -0.043,0.709 -0.168,1.041 -0.126,0.332 -0.318,0.635 -0.564,0.892 -0.247,0.256 -0.542,0.46 -0.869,0.599 -0.327,0.139 -0.679,0.211 -1.035,0.211 -0.356,0 -0.708,-0.072 -1.035,-0.211 -0.327,-0.139 -0.622,-0.343 -0.869,-0.599 -0.246,-0.257 -0.438,-0.56 -0.564,-0.892 -0.126,-0.332 -0.183,-0.686 -0.168,-1.041 z" />
  <path
     style="fill:#d0cde1"
     inkscape:connector-curvature="0"
     id="path24"
     d="m 333.412,97.0608 -0.089,-1.1505 c -0.265,-2.3888 0.532,-4.9992 2.747,-7.6533 1.994,-2.3452 3.102,-4.0704 3.102,-6.0614 0,-2.2562 -1.418,-3.7603 -4.209,-3.8045 -1.597,-0.0065 -3.157,0.4718 -4.475,1.3715 l -1.064,-2.7873 c 1.463,-1.062 3.988,-1.7699 6.336,-1.7699 5.095,0 7.399,3.1414 7.399,6.5034 0,3.0088 -1.684,5.1766 -3.81,7.6981 -1.95,2.3004 -2.658,4.2472 -2.526,6.5034 l 0.045,1.1505 z m -0.975,6.1942 c -0.024,-0.361 0.028,-0.723 0.151,-1.063 0.124,-0.34 0.316,-0.651 0.566,-0.913 0.25,-0.262 0.551,-0.469 0.886,-0.609 0.334,-0.14 0.693,-0.209 1.055,-0.203 1.551,0 2.615,1.15 2.615,2.788 0.014,0.355 -0.043,0.709 -0.169,1.041 -0.126,0.332 -0.318,0.635 -0.564,0.891 -0.246,0.257 -0.542,0.461 -0.869,0.6 -0.327,0.139 -0.679,0.211 -1.035,0.211 -0.355,0 -0.707,-0.072 -1.034,-0.211 -0.327,-0.139 -0.623,-0.343 -0.869,-0.6 -0.246,-0.256 -0.438,-0.559 -0.564,-0.891 -0.126,-0.332 -0.183,-0.686 -0.169,-1.041 z" />
  <path
     style="fill:#2f2e41"
     inkscape:connector-curvature="0"
     id="path26"
     d="m 248.678,178.585 c 24.552,0 44.456,-19.875 44.456,-44.393 0,-24.517 -19.904,-44.3922 -44.456,-44.3922 -24.553,0 -44.457,19.8752 -44.457,44.3922 0,24.518 19.904,44.393 44.457,44.393 z" />
  <path
     style="fill:#2f2e41"
     inkscape:connector-curvature="0"
     id="path28"
     d="m 231.507,194.984 -13.29,-2.402 4.311,-27.71 13.289,2.402 z" />
  <path
     style="fill:#2f2e41"
     inkscape:connector-curvature="0"
     id="path30"
     d="m 262.397,172.079 -13.29,-2.403 -4.31,23.777 13.29,2.402 z" />
  <path
     style="fill:#2f2e41"
     inkscape:connector-curvature="0"
     id="path32"
     d="m 266.97,197.15 c 0.461,-2.281 -4.105,-5.126 -10.198,-6.355 -6.093,-1.228 -11.406,-0.374 -11.867,1.908 -0.461,2.281 4.104,5.127 10.197,6.355 6.093,1.228 11.406,0.374 11.868,-1.908 z" />
  <path
     style="fill:#2f2e41"
     inkscape:connector-curvature="0"
     id="path34"
     d="m 239.289,196.434 c 0.306,-2.308 -4.441,-4.839 -10.603,-5.654 -6.162,-0.815 -11.405,0.395 -11.712,2.702 -0.306,2.307 4.441,4.839 10.604,5.654 6.162,0.815 11.405,-0.395 11.711,-2.702 z" />
  <path
     style="fill:#ffffff"
     inkscape:connector-curvature="0"
     id="path36"
     d="m 251.79,138.506 c 8.391,0 15.194,-6.793 15.194,-15.172 0,-8.38 -6.803,-15.172 -15.194,-15.172 -8.391,0 -15.194,6.792 -15.194,15.172 0,8.379 6.803,15.172 15.194,15.172 z" />
  <path
     style="fill:#3f3d56"
     inkscape:connector-curvature="0"
     id="path38"
     d="m 258.035,122.953 c 2.797,0 5.064,-2.265 5.064,-5.058 0,-2.793 -2.267,-5.057 -5.064,-5.057 -2.797,0 -5.065,2.264 -5.065,5.057 0,2.793 2.268,5.058 5.065,5.058 z" />
  <path
     style="fill:#ffffff"
     inkscape:connector-curvature="0"
     id="path40"
     d="m 213.607,85.898 c -0.668,-16.4348 13.517,-30.3553 31.683,-31.0921 18.167,-0.7369 33.436,11.9888 34.104,28.4236 0.669,16.4349 -11.959,20.1695 -30.126,20.9055 -18.166,0.737 -34.992,-1.802 -35.661,-18.237 z" />
  <path
     style="fill:#2f2e41"
     inkscape:connector-curvature="0"
     id="path42"
     d="m 291.286,132.897 c 11.966,-2.739 20.969,-8 20.108,-11.751 -0.861,-3.751 -11.26,-4.572 -23.226,-1.833 -11.966,2.739 -20.968,8 -20.107,11.751 0.861,3.751 11.259,4.572 23.225,1.833 z" />
  <path
     style="fill:#2f2e41"
     inkscape:connector-curvature="0"
     id="path44"
     d="m 204.019,147.388 c 11.967,-2.739 20.969,-8 20.108,-11.751 -0.861,-3.751 -11.26,-4.572 -23.226,-1.833 -11.966,2.739 -20.968,8 -20.107,11.751 0.861,3.752 11.259,4.572 23.225,1.833 z" />
  <path
     style="fill:#ffffff"
     inkscape:connector-curvature="0"
     id="path46"
     d="m 236.468,151.687 c -0.237,1.307 -0.214,2.648 0.068,3.946 0.282,1.298 0.817,2.528 1.575,3.62 0.758,1.091 1.724,2.023 2.843,2.742 1.118,0.718 2.368,1.21 3.677,1.447 1.309,0.236 2.651,0.213 3.951,-0.068 1.3,-0.282 2.532,-0.816 3.625,-1.573 1.093,-0.757 2.026,-1.722 2.746,-2.839 0.72,-1.117 1.212,-2.364 1.449,-3.671 0.997,-5.497 -3.259,-7.442 -8.764,-8.438 -5.505,-0.995 -10.174,-0.663 -11.17,4.834 z" />
  <path
     style="fill:#d0cde1"
     inkscape:connector-curvature="0"
     id="path48"
     d="M 152.713,6.75069 H 79.6145 V 76.184 h 73.0985 z" />
  <path
     style="fill:#ffffff"
     inkscape:connector-curvature="0"
     id="path50"
     d="M 144.406,15.0454 H 87.9211 v 43.1323 h 56.4849 z" />
  <path
     style="fill:#f2f2f2"
     inkscape:connector-curvature="0"
     id="path52"
     d="M 118.589,63.2662 H 87.8651 v 1.6147 h 30.7239 z" />
  <path
     style="fill:#f2f2f2"
     inkscape:connector-curvature="0"
     id="path54"
     d="M 118.589,68.1104 H 87.8651 v 1.6147 h 30.7239 z" />
  <path
     style="fill:#3f3d56"
     inkscape:connector-curvature="0"
     id="path56"
     d="m 97.9718,43.0821 c 3.5722,0 6.4682,-2.8918 6.4682,-6.4589 0,-3.5672 -2.896,-6.4589 -6.4682,-6.4589 -3.5723,0 -6.4683,2.8917 -6.4683,6.4589 0,3.5671 2.896,6.4589 6.4683,6.4589 z" />
  <path
     style="fill:#17b978;fill-opacity:1"
     inkscape:connector-curvature="0"
     id="path58"
     d="m 116.164,43.0821 c 3.572,0 6.468,-2.8918 6.468,-6.4589 0,-3.5672 -2.896,-6.4589 -6.468,-6.4589 -3.573,0 -6.469,2.8917 -6.469,6.4589 0,3.5671 2.896,6.4589 6.469,6.4589 z" />
  <path
     style="fill:#e6e6e6"
     inkscape:connector-curvature="0"
     id="path60"
     d="m 134.356,43.0821 c 3.572,0 6.468,-2.8918 6.468,-6.4589 0,-3.5672 -2.896,-6.4589 -6.468,-6.4589 -3.573,0 -6.469,2.8917 -6.469,6.4589 0,3.5671 2.896,6.4589 6.469,6.4589 z" />
  <path
     style="fill:#3f3d56"
     inkscape:connector-curvature="0"
     id="path62"
     d="m 116.164,14.017 c 1.786,0 3.234,-1.4459 3.234,-3.2295 0,-1.78357 -1.448,-3.22945 -3.234,-3.22945 -1.786,0 -3.234,1.44588 -3.234,3.22945 0,1.7836 1.448,3.2295 3.234,3.2295 z" />
  <path
     style="fill:#d0cde1"
     inkscape:connector-curvature="0"
     id="path64"
     d="m 187.482,141.194 h -73.099 v 69.433 h 73.099 z" />
  <path
     style="fill:#ffffff"
     inkscape:connector-curvature="0"
     id="path66"
     d="M 179.175,149.489 H 122.69 v 43.132 h 56.485 z" />
  <path
     style="fill:#17b978;fill-opacity:1"
     inkscape:connector-curvature="0"
     id="path68"
     d="m 154.922,156.577 h -19.803 v 19.774 h 19.803 z" />
  <path
     style="fill:#3f3d56"
     inkscape:connector-curvature="0"
     id="path70"
     d="m 142.7,161.522 v 24.011 h 24.045 v -24.011 z m 23.002,22.969 h -21.959 v -21.928 h 21.959 z" />
  <path
     style="fill:#f2f2f2"
     inkscape:connector-curvature="0"
     id="path72"
     d="m 153.358,196.902 h -30.724 v 1.615 h 30.724 z" />
  <path
     style="fill:#3f3d56"
     inkscape:connector-curvature="0"
     id="path74"
     d="m 150.932,148.46 c 1.787,0 3.234,-1.445 3.234,-3.229 0,-1.784 -1.447,-3.23 -3.234,-3.23 -1.786,0 -3.234,1.446 -3.234,3.23 0,1.784 1.448,3.229 3.234,3.229 z" />
  <path
     style="fill:#d0cde1"
     inkscape:connector-curvature="0"
     id="path76"
     d="m 377.799,120.407 h -73.098 v 69.434 h 73.098 z" />
  <path
     style="fill:#ffffff"
     inkscape:connector-curvature="0"
     id="path78"
     d="m 369.493,128.702 h -56.485 v 43.132 h 56.485 z" />
  <path
     style="fill:#3f3d56"
     inkscape:connector-curvature="0"
     id="path80"
     d="m 347.326,162.468 h -12.152 v 3.596 h 12.152 z" />
  <path
     style="fill:#3f3d56"
     inkscape:connector-curvature="0"
     id="path82"
     d="m 362.017,134.472 h -41.533 v 1.541 h 41.533 z" />
  <path
     style="fill:#3f3d56"
     inkscape:connector-curvature="0"
     id="path84"
     d="m 362.017,139.352 h -41.533 v 1.541 h 41.533 z" />
  <path
     style="fill:#3f3d56"
     inkscape:connector-curvature="0"
     id="path86"
     d="m 362.017,144.232 h -41.533 v 1.541 h 41.533 z" />
  <path
     style="fill:#3f3d56"
     inkscape:connector-curvature="0"
     id="path88"
     d="m 362.017,149.112 h -41.533 v 1.541 h 41.533 z" />
  <path
     style="fill:#3f3d56"
     inkscape:connector-curvature="0"
     id="path90"
     d="m 362.017,153.992 h -41.533 v 1.542 h 41.533 z" />
  <path
     style="fill:#f2f2f2"
     inkscape:connector-curvature="0"
     id="path92"
     d="m 343.676,176.116 h -30.724 v 1.614 h 30.724 z" />
  <path
     style="fill:#f2f2f2"
     inkscape:connector-curvature="0"
     id="path94"
     d="m 355.804,180.152 h -42.852 v 1.615 h 42.852 z" />
  <path
     style="fill:#3f3d56"
     inkscape:connector-curvature="0"
     id="path96"
     d="m 341.25,127.674 c 1.786,0 3.234,-1.446 3.234,-3.23 0,-1.783 -1.448,-3.229 -3.234,-3.229 -1.786,0 -3.234,1.446 -3.234,3.229 0,1.784 1.448,3.23 3.234,3.23 z" />
  <defs
     id="defs103">
    <clipPath
       id="clip0">
      <rect
         width="485"
         height="224"
         fill="white"
         id="rect100" />
    </clipPath>
  </defs>
</svg>
